<mxfile host="app.diagrams.net" modified="2024-02-17T03:20:05.597Z" agent="Mozilla/5.0 (Windows NT 10.0; Win64; x64) AppleWebKit/537.36 (KHTML, like Gecko) Chrome/121.0.0.0 Safari/537.36" etag="4ddUWLGact9GE3L8fA1K" version="23.1.5" type="device">
  <diagram name="Page-1" id="3Er0qwYesITypoPCCtCb">
    <mxGraphModel dx="1880" dy="895" grid="1" gridSize="10" guides="1" tooltips="1" connect="1" arrows="1" fold="1" page="1" pageScale="1" pageWidth="850" pageHeight="1100" math="0" shadow="0">
      <root>
        <mxCell id="0" />
        <mxCell id="1" parent="0" />
        <mxCell id="oRBdFiz2_GZ_mSowHHOm-2" style="edgeStyle=orthogonalEdgeStyle;rounded=0;orthogonalLoop=1;jettySize=auto;html=1;" parent="1" source="oRBdFiz2_GZ_mSowHHOm-1" target="oRBdFiz2_GZ_mSowHHOm-3" edge="1">
          <mxGeometry relative="1" as="geometry">
            <mxPoint x="420" y="150" as="targetPoint" />
          </mxGeometry>
        </mxCell>
        <mxCell id="oRBdFiz2_GZ_mSowHHOm-1" value="START" style="strokeWidth=2;html=1;shape=mxgraph.flowchart.start_1;whiteSpace=wrap;" parent="1" vertex="1">
          <mxGeometry x="370" y="30" width="100" height="60" as="geometry" />
        </mxCell>
        <mxCell id="oRBdFiz2_GZ_mSowHHOm-4" style="edgeStyle=orthogonalEdgeStyle;rounded=0;orthogonalLoop=1;jettySize=auto;html=1;" parent="1" source="oRBdFiz2_GZ_mSowHHOm-3" edge="1">
          <mxGeometry relative="1" as="geometry">
            <mxPoint x="420" y="270" as="targetPoint" />
          </mxGeometry>
        </mxCell>
        <mxCell id="oRBdFiz2_GZ_mSowHHOm-3" value="Initialize total_Cost = 0" style="rounded=1;whiteSpace=wrap;html=1;absoluteArcSize=1;arcSize=14;strokeWidth=2;" parent="1" vertex="1">
          <mxGeometry x="355" y="154" width="130" height="50" as="geometry" />
        </mxCell>
        <mxCell id="oRBdFiz2_GZ_mSowHHOm-6" style="edgeStyle=orthogonalEdgeStyle;rounded=0;orthogonalLoop=1;jettySize=auto;html=1;" parent="1" source="oRBdFiz2_GZ_mSowHHOm-5" edge="1">
          <mxGeometry relative="1" as="geometry">
            <mxPoint x="421" y="390" as="targetPoint" />
          </mxGeometry>
        </mxCell>
        <mxCell id="oRBdFiz2_GZ_mSowHHOm-5" value="Print coverCharges and ticketCharges" style="rounded=1;whiteSpace=wrap;html=1;absoluteArcSize=1;arcSize=14;strokeWidth=2;" parent="1" vertex="1">
          <mxGeometry x="356" y="270" width="130" height="50" as="geometry" />
        </mxCell>
        <mxCell id="BA6QVae9thi6z7esa4fj-3" value="" style="edgeStyle=orthogonalEdgeStyle;rounded=0;orthogonalLoop=1;jettySize=auto;html=1;" edge="1" parent="1" source="BA6QVae9thi6z7esa4fj-1" target="BA6QVae9thi6z7esa4fj-2">
          <mxGeometry relative="1" as="geometry" />
        </mxCell>
        <mxCell id="BA6QVae9thi6z7esa4fj-1" value="total_Cost = coverCharges + ticketCharges" style="rounded=1;whiteSpace=wrap;html=1;absoluteArcSize=1;arcSize=14;strokeWidth=2;" vertex="1" parent="1">
          <mxGeometry x="355" y="390" width="130" height="50" as="geometry" />
        </mxCell>
        <mxCell id="BA6QVae9thi6z7esa4fj-4" style="edgeStyle=orthogonalEdgeStyle;rounded=0;orthogonalLoop=1;jettySize=auto;html=1;" edge="1" parent="1" source="BA6QVae9thi6z7esa4fj-2">
          <mxGeometry relative="1" as="geometry">
            <mxPoint x="420" y="680" as="targetPoint" />
          </mxGeometry>
        </mxCell>
        <mxCell id="BA6QVae9thi6z7esa4fj-5" value="NO" style="edgeLabel;html=1;align=center;verticalAlign=middle;resizable=0;points=[];" vertex="1" connectable="0" parent="BA6QVae9thi6z7esa4fj-4">
          <mxGeometry x="-0.1553" y="1" relative="1" as="geometry">
            <mxPoint as="offset" />
          </mxGeometry>
        </mxCell>
        <mxCell id="BA6QVae9thi6z7esa4fj-10" style="edgeStyle=orthogonalEdgeStyle;rounded=0;orthogonalLoop=1;jettySize=auto;html=1;" edge="1" parent="1" source="BA6QVae9thi6z7esa4fj-2">
          <mxGeometry relative="1" as="geometry">
            <mxPoint x="580" y="560" as="targetPoint" />
          </mxGeometry>
        </mxCell>
        <mxCell id="BA6QVae9thi6z7esa4fj-31" value="YES" style="edgeLabel;html=1;align=center;verticalAlign=middle;resizable=0;points=[];" vertex="1" connectable="0" parent="BA6QVae9thi6z7esa4fj-10">
          <mxGeometry x="-0.438" relative="1" as="geometry">
            <mxPoint as="offset" />
          </mxGeometry>
        </mxCell>
        <mxCell id="BA6QVae9thi6z7esa4fj-2" value="Parking == 1?" style="rhombus;whiteSpace=wrap;html=1;rounded=1;arcSize=14;strokeWidth=2;" vertex="1" parent="1">
          <mxGeometry x="345" y="520" width="150" height="80" as="geometry" />
        </mxCell>
        <mxCell id="BA6QVae9thi6z7esa4fj-8" style="edgeStyle=orthogonalEdgeStyle;rounded=0;orthogonalLoop=1;jettySize=auto;html=1;entryX=0.5;entryY=0;entryDx=0;entryDy=0;" edge="1" parent="1" source="BA6QVae9thi6z7esa4fj-6" target="BA6QVae9thi6z7esa4fj-7">
          <mxGeometry relative="1" as="geometry" />
        </mxCell>
        <mxCell id="BA6QVae9thi6z7esa4fj-9" value="NO" style="edgeLabel;html=1;align=center;verticalAlign=middle;resizable=0;points=[];" vertex="1" connectable="0" parent="BA6QVae9thi6z7esa4fj-8">
          <mxGeometry x="-0.1962" y="-1" relative="1" as="geometry">
            <mxPoint as="offset" />
          </mxGeometry>
        </mxCell>
        <mxCell id="BA6QVae9thi6z7esa4fj-14" style="edgeStyle=orthogonalEdgeStyle;rounded=0;orthogonalLoop=1;jettySize=auto;html=1;entryX=0.154;entryY=0.6;entryDx=0;entryDy=0;entryPerimeter=0;" edge="1" parent="1">
          <mxGeometry relative="1" as="geometry">
            <mxPoint x="578.02" y="720" as="targetPoint" />
            <mxPoint x="473" y="720" as="sourcePoint" />
          </mxGeometry>
        </mxCell>
        <mxCell id="BA6QVae9thi6z7esa4fj-32" value="YES" style="edgeLabel;html=1;align=center;verticalAlign=middle;resizable=0;points=[];" vertex="1" connectable="0" parent="BA6QVae9thi6z7esa4fj-14">
          <mxGeometry x="-0.0142" y="-5" relative="1" as="geometry">
            <mxPoint y="-3" as="offset" />
          </mxGeometry>
        </mxCell>
        <mxCell id="BA6QVae9thi6z7esa4fj-6" value="Snack == 1?" style="rhombus;whiteSpace=wrap;html=1;rounded=1;arcSize=14;strokeWidth=2;" vertex="1" parent="1">
          <mxGeometry x="345" y="680" width="150" height="80" as="geometry" />
        </mxCell>
        <mxCell id="BA6QVae9thi6z7esa4fj-21" style="edgeStyle=orthogonalEdgeStyle;rounded=0;orthogonalLoop=1;jettySize=auto;html=1;" edge="1" parent="1" source="BA6QVae9thi6z7esa4fj-7">
          <mxGeometry relative="1" as="geometry">
            <mxPoint x="580" y="880" as="targetPoint" />
          </mxGeometry>
        </mxCell>
        <mxCell id="BA6QVae9thi6z7esa4fj-33" value="YES" style="edgeLabel;html=1;align=center;verticalAlign=middle;resizable=0;points=[];" vertex="1" connectable="0" parent="BA6QVae9thi6z7esa4fj-21">
          <mxGeometry x="-0.2377" y="-3" relative="1" as="geometry">
            <mxPoint as="offset" />
          </mxGeometry>
        </mxCell>
        <mxCell id="BA6QVae9thi6z7esa4fj-34" style="edgeStyle=orthogonalEdgeStyle;rounded=0;orthogonalLoop=1;jettySize=auto;html=1;entryX=0.5;entryY=0;entryDx=0;entryDy=0;" edge="1" parent="1" source="BA6QVae9thi6z7esa4fj-7" target="BA6QVae9thi6z7esa4fj-25">
          <mxGeometry relative="1" as="geometry" />
        </mxCell>
        <mxCell id="BA6QVae9thi6z7esa4fj-46" value="NO" style="edgeLabel;html=1;align=center;verticalAlign=middle;resizable=0;points=[];" vertex="1" connectable="0" parent="BA6QVae9thi6z7esa4fj-34">
          <mxGeometry x="-0.3333" y="-1" relative="1" as="geometry">
            <mxPoint as="offset" />
          </mxGeometry>
        </mxCell>
        <mxCell id="BA6QVae9thi6z7esa4fj-7" value="Discounts applied ?" style="rhombus;whiteSpace=wrap;html=1;rounded=1;arcSize=14;strokeWidth=2;" vertex="1" parent="1">
          <mxGeometry x="345" y="840" width="150" height="80" as="geometry" />
        </mxCell>
        <mxCell id="BA6QVae9thi6z7esa4fj-12" style="edgeStyle=orthogonalEdgeStyle;rounded=0;orthogonalLoop=1;jettySize=auto;html=1;" edge="1" parent="1" source="BA6QVae9thi6z7esa4fj-11">
          <mxGeometry relative="1" as="geometry">
            <mxPoint x="790" y="560" as="targetPoint" />
          </mxGeometry>
        </mxCell>
        <mxCell id="BA6QVae9thi6z7esa4fj-11" value="Print Parking_charges" style="rounded=1;whiteSpace=wrap;html=1;absoluteArcSize=1;arcSize=14;strokeWidth=2;" vertex="1" parent="1">
          <mxGeometry x="580" y="535" width="130" height="50" as="geometry" />
        </mxCell>
        <mxCell id="BA6QVae9thi6z7esa4fj-30" style="edgeStyle=orthogonalEdgeStyle;rounded=0;orthogonalLoop=1;jettySize=auto;html=1;entryX=0.5;entryY=0;entryDx=0;entryDy=0;" edge="1" parent="1" source="BA6QVae9thi6z7esa4fj-13" target="BA6QVae9thi6z7esa4fj-6">
          <mxGeometry relative="1" as="geometry">
            <Array as="points">
              <mxPoint x="855" y="660" />
              <mxPoint x="420" y="660" />
            </Array>
          </mxGeometry>
        </mxCell>
        <mxCell id="BA6QVae9thi6z7esa4fj-13" value="total_Cost += parking_Charges" style="rounded=1;whiteSpace=wrap;html=1;absoluteArcSize=1;arcSize=14;strokeWidth=2;" vertex="1" parent="1">
          <mxGeometry x="790" y="535" width="130" height="50" as="geometry" />
        </mxCell>
        <mxCell id="BA6QVae9thi6z7esa4fj-17" style="edgeStyle=orthogonalEdgeStyle;rounded=0;orthogonalLoop=1;jettySize=auto;html=1;entryX=0.077;entryY=0.56;entryDx=0;entryDy=0;entryPerimeter=0;" edge="1" parent="1">
          <mxGeometry relative="1" as="geometry">
            <mxPoint x="788.01" y="715" as="targetPoint" />
            <mxPoint x="698" y="715" as="sourcePoint" />
          </mxGeometry>
        </mxCell>
        <mxCell id="BA6QVae9thi6z7esa4fj-15" value="Print snack_Charges" style="rounded=1;whiteSpace=wrap;html=1;absoluteArcSize=1;arcSize=14;strokeWidth=2;" vertex="1" parent="1">
          <mxGeometry x="580" y="690" width="130" height="50" as="geometry" />
        </mxCell>
        <mxCell id="BA6QVae9thi6z7esa4fj-29" style="edgeStyle=orthogonalEdgeStyle;rounded=0;orthogonalLoop=1;jettySize=auto;html=1;entryX=0.5;entryY=0;entryDx=0;entryDy=0;" edge="1" parent="1" source="BA6QVae9thi6z7esa4fj-16" target="BA6QVae9thi6z7esa4fj-7">
          <mxGeometry relative="1" as="geometry">
            <mxPoint x="420" y="820" as="targetPoint" />
            <Array as="points">
              <mxPoint x="855" y="820" />
              <mxPoint x="420" y="820" />
            </Array>
          </mxGeometry>
        </mxCell>
        <mxCell id="BA6QVae9thi6z7esa4fj-16" value="total_Cost += snack_Charges" style="rounded=1;whiteSpace=wrap;html=1;absoluteArcSize=1;arcSize=14;strokeWidth=2;" vertex="1" parent="1">
          <mxGeometry x="790" y="687" width="130" height="50" as="geometry" />
        </mxCell>
        <mxCell id="BA6QVae9thi6z7esa4fj-24" value="" style="edgeStyle=orthogonalEdgeStyle;rounded=0;orthogonalLoop=1;jettySize=auto;html=1;" edge="1" parent="1" source="BA6QVae9thi6z7esa4fj-22" target="BA6QVae9thi6z7esa4fj-23">
          <mxGeometry relative="1" as="geometry" />
        </mxCell>
        <mxCell id="BA6QVae9thi6z7esa4fj-22" value="Print Discounts applied" style="rounded=1;whiteSpace=wrap;html=1;absoluteArcSize=1;arcSize=14;strokeWidth=2;" vertex="1" parent="1">
          <mxGeometry x="580" y="860" width="130" height="50" as="geometry" />
        </mxCell>
        <mxCell id="BA6QVae9thi6z7esa4fj-35" style="edgeStyle=orthogonalEdgeStyle;rounded=0;orthogonalLoop=1;jettySize=auto;html=1;entryX=0.5;entryY=0;entryDx=0;entryDy=0;" edge="1" parent="1" source="BA6QVae9thi6z7esa4fj-23" target="BA6QVae9thi6z7esa4fj-25">
          <mxGeometry relative="1" as="geometry">
            <Array as="points">
              <mxPoint x="855" y="990" />
              <mxPoint x="420" y="990" />
            </Array>
          </mxGeometry>
        </mxCell>
        <mxCell id="BA6QVae9thi6z7esa4fj-23" value="total_Cost -= Discounts applied" style="rounded=1;whiteSpace=wrap;html=1;absoluteArcSize=1;arcSize=14;strokeWidth=2;" vertex="1" parent="1">
          <mxGeometry x="790" y="859" width="130" height="50" as="geometry" />
        </mxCell>
        <mxCell id="BA6QVae9thi6z7esa4fj-48" style="edgeStyle=orthogonalEdgeStyle;rounded=0;orthogonalLoop=1;jettySize=auto;html=1;" edge="1" parent="1" source="BA6QVae9thi6z7esa4fj-25">
          <mxGeometry relative="1" as="geometry">
            <mxPoint x="420" y="1159.9999999999998" as="targetPoint" />
          </mxGeometry>
        </mxCell>
        <mxCell id="BA6QVae9thi6z7esa4fj-25" value="Enter total charge for Customer as total_Cost" style="rounded=1;whiteSpace=wrap;html=1;absoluteArcSize=1;arcSize=14;strokeWidth=2;" vertex="1" parent="1">
          <mxGeometry x="355" y="1040" width="130" height="50" as="geometry" />
        </mxCell>
        <mxCell id="BA6QVae9thi6z7esa4fj-36" style="edgeStyle=orthogonalEdgeStyle;rounded=0;orthogonalLoop=1;jettySize=auto;html=1;" edge="1" parent="1" source="BA6QVae9thi6z7esa4fj-28">
          <mxGeometry relative="1" as="geometry">
            <mxPoint x="275" y="1349" as="targetPoint" />
          </mxGeometry>
        </mxCell>
        <mxCell id="BA6QVae9thi6z7esa4fj-41" value="NO" style="edgeLabel;html=1;align=center;verticalAlign=middle;resizable=0;points=[];" vertex="1" connectable="0" parent="BA6QVae9thi6z7esa4fj-36">
          <mxGeometry x="0.3541" y="1" relative="1" as="geometry">
            <mxPoint as="offset" />
          </mxGeometry>
        </mxCell>
        <mxCell id="BA6QVae9thi6z7esa4fj-37" style="edgeStyle=orthogonalEdgeStyle;rounded=0;orthogonalLoop=1;jettySize=auto;html=1;" edge="1" parent="1">
          <mxGeometry relative="1" as="geometry">
            <mxPoint x="565" y="1349" as="targetPoint" />
            <mxPoint x="494" y="1198.0000000000002" as="sourcePoint" />
          </mxGeometry>
        </mxCell>
        <mxCell id="BA6QVae9thi6z7esa4fj-38" value="YES" style="edgeLabel;html=1;align=center;verticalAlign=middle;resizable=0;points=[];" vertex="1" connectable="0" parent="BA6QVae9thi6z7esa4fj-37">
          <mxGeometry x="0.1412" y="-3" relative="1" as="geometry">
            <mxPoint as="offset" />
          </mxGeometry>
        </mxCell>
        <mxCell id="BA6QVae9thi6z7esa4fj-28" value="Receipt Wanted ?" style="rhombus;whiteSpace=wrap;html=1;rounded=1;arcSize=14;strokeWidth=2;" vertex="1" parent="1">
          <mxGeometry x="345" y="1161" width="150" height="78" as="geometry" />
        </mxCell>
        <mxCell id="BA6QVae9thi6z7esa4fj-39" value="Print receipt" style="rounded=1;whiteSpace=wrap;html=1;absoluteArcSize=1;arcSize=14;strokeWidth=2;" vertex="1" parent="1">
          <mxGeometry x="503" y="1349" width="130" height="50" as="geometry" />
        </mxCell>
        <mxCell id="BA6QVae9thi6z7esa4fj-42" value="END" style="strokeWidth=2;html=1;shape=mxgraph.flowchart.start_1;whiteSpace=wrap;" vertex="1" parent="1">
          <mxGeometry x="226" y="1349" width="100" height="60" as="geometry" />
        </mxCell>
        <mxCell id="BA6QVae9thi6z7esa4fj-45" style="edgeStyle=orthogonalEdgeStyle;rounded=0;orthogonalLoop=1;jettySize=auto;html=1;entryX=1.119;entryY=0.426;entryDx=0;entryDy=0;entryPerimeter=0;exitX=0;exitY=0.5;exitDx=0;exitDy=0;" edge="1" parent="1" source="BA6QVae9thi6z7esa4fj-39">
          <mxGeometry relative="1" as="geometry">
            <mxPoint x="490.9999999999998" y="1374.058823529412" as="sourcePoint" />
            <mxPoint x="324.89999999999986" y="1374.5600000000002" as="targetPoint" />
          </mxGeometry>
        </mxCell>
      </root>
    </mxGraphModel>
  </diagram>
</mxfile>
